<svg width="25" height="24" viewBox="0 0 25 24" fill="none" xmlns="http://www.w3.org/2000/svg">
<path d="M20.5 12.2744C20.5 12.6541 20.2178 12.9679 19.8518 13.0176L19.75 13.0244L4.75 13.0244C4.33579 13.0244 4 12.6886 4 12.2744C4 11.8947 4.28215 11.5809 4.64823 11.5313L4.75 11.5244L19.75 11.5244C20.1642 11.5244 20.5 11.8602 20.5 12.2744Z" fill="black"/>
<path d="M11.329 17.7675C11.6225 18.0598 11.6235 18.5347 11.3313 18.8282C11.0656 19.095 10.649 19.1201 10.3549 18.9029L10.2706 18.8305L4.22062 12.8065C3.95298 12.54 3.92863 12.1219 4.14759 11.8278L4.22057 11.7436L10.2706 5.71857C10.5641 5.42629 11.0389 5.42727 11.3312 5.72077C11.5969 5.98759 11.6203 6.4043 11.4018 6.69746L11.329 6.78143L5.813 12.2753L11.329 17.7675Z" fill="black"/>
</svg>
