<svg width="13" height="13" viewBox="0 0 13 13" fill="none" xmlns="http://www.w3.org/2000/svg">
<path fill-rule="evenodd" clip-rule="evenodd" d="M4.75093 12.0414L10.6085 4.46641C10.9269 4.05792 11.0401 3.58565 10.9339 3.10478C10.842 2.66762 10.5731 2.25197 10.1699 1.93664L9.18657 1.1555C8.33057 0.474679 7.26941 0.546344 6.66102 1.32749L6.0031 2.18102C5.91821 2.2878 5.93943 2.44546 6.04554 2.53146C6.04554 2.53146 7.70802 3.86443 7.7434 3.89309C7.85659 4.00059 7.94148 4.14392 7.9627 4.31592C7.99807 4.65274 7.76462 4.96807 7.41797 5.01107C7.25526 5.03256 7.09963 4.9824 6.98644 4.88924L5.23906 3.49894C5.15417 3.43515 5.02683 3.44877 4.95609 3.53477L0.803426 8.90963C0.534599 9.24646 0.442632 9.68361 0.534599 10.1064L1.06518 12.4069C1.09348 12.5287 1.19959 12.6147 1.32693 12.6147L3.66148 12.586C4.08594 12.5789 4.48211 12.3854 4.75093 12.0414ZM8.01979 11.325H11.8265C12.1979 11.325 12.5 11.631 12.5 12.0072C12.5 12.3842 12.1979 12.6895 11.8265 12.6895H8.01979C7.64839 12.6895 7.34631 12.3842 7.34631 12.0072C7.34631 11.631 7.64839 11.325 8.01979 11.325Z" fill="#3993ED"/>
</svg>
