<svg width="24" height="25" viewBox="0 0 24 25" fill="none" xmlns="http://www.w3.org/2000/svg">
<path fill-rule="evenodd" clip-rule="evenodd" d="M11.7769 14.2946C11.1079 14.2946 10.4409 14.0736 9.88289 13.6316L5.39789 10.0156C5.07489 9.75558 5.02489 9.28258 5.28389 8.96058C5.54489 8.63958 6.01689 8.58858 6.33889 8.84758L10.8199 12.4596C11.3829 12.9056 12.1759 12.9056 12.7429 12.4556L17.1789 8.84958C17.5009 8.58658 17.9729 8.63658 18.2349 8.95858C18.4959 9.27958 18.4469 9.75158 18.1259 10.0136L13.6819 13.6256C13.1199 14.0716 12.4479 14.2946 11.7769 14.2946Z" fill="#CAB15D"/>
<mask id="mask0_13_2831" style="mask-type:luminance" maskUnits="userSpaceOnUse" x="1" y="2" width="22" height="21">
<path fill-rule="evenodd" clip-rule="evenodd" d="M1 2.83008H22.4999V22.3301H1V2.83008Z" fill="white"/>
</mask>
<g mask="url(#mask0_13_2831)">
<path fill-rule="evenodd" clip-rule="evenodd" d="M6.83891 20.8301H16.6589C16.6609 20.8281 16.6689 20.8301 16.6749 20.8301C17.8159 20.8301 18.8279 20.4221 19.6039 19.6471C20.5049 18.7501 20.9999 17.4611 20.9999 16.0181V9.15008C20.9999 6.35708 19.1739 4.33008 16.6589 4.33008H6.84091C4.32591 4.33008 2.49991 6.35708 2.49991 9.15008V16.0181C2.49991 17.4611 2.99591 18.7501 3.89591 19.6471C4.67191 20.4221 5.68491 20.8301 6.82491 20.8301H6.83891ZM6.82191 22.3301C5.27891 22.3301 3.90091 21.7701 2.83691 20.7101C1.65191 19.5281 0.999908 17.8621 0.999908 16.0181V9.15008C0.999908 5.54708 3.51091 2.83008 6.84091 2.83008H16.6589C19.9889 2.83008 22.4999 5.54708 22.4999 9.15008V16.0181C22.4999 17.8621 21.8479 19.5281 20.6629 20.7101C19.5999 21.7691 18.2209 22.3301 16.6749 22.3301H16.6589H6.84091H6.82191Z" fill="#CAB15D"/>
</g>
</svg>
