<svg width="41" height="41" viewBox="0 0 41 41" fill="none" xmlns="http://www.w3.org/2000/svg">
<g clip-path="url(#clip0_13_3713)">
<path fill-rule="evenodd" clip-rule="evenodd" d="M11.9046 13.377C10.754 13.377 9.82129 14.3097 9.82129 15.4603C9.82129 16.6109 10.754 17.5436 11.9046 17.5436C13.0552 17.5436 13.988 16.6109 13.988 15.4603C13.988 14.3097 13.0552 13.377 11.9046 13.377ZM7.32129 15.4603C7.32129 12.929 9.37332 10.877 11.9046 10.877C14.4359 10.877 16.488 12.929 16.488 15.4603C16.488 17.9916 14.4359 20.0436 11.9046 20.0436C9.37332 20.0436 7.32129 17.9916 7.32129 15.4603Z" fill="#CAB15D"/>
<path fill-rule="evenodd" clip-rule="evenodd" d="M17.1471 26.4682C15.0641 28.8007 12.8918 31.991 10.595 36.0734C10.2565 36.675 9.49433 36.8884 8.89266 36.5499C8.29099 36.2112 8.07768 35.4492 8.41618 34.8475C10.7611 30.6797 13.0345 27.32 15.2824 24.803C17.5245 22.2922 19.802 20.551 22.1695 19.7312C24.5825 18.8955 26.9918 19.052 29.3673 20.1594C31.7011 21.2472 33.9623 23.2317 36.208 25.9872C36.644 26.5224 36.5638 27.3099 36.0286 27.7459C35.4935 28.182 34.7061 28.1017 34.27 27.5665C32.149 24.9639 30.1705 23.292 28.3111 22.4252C26.4935 21.578 24.7558 21.4812 22.9876 22.0935C21.1738 22.7217 19.2356 24.1295 17.1471 26.4682Z" fill="#CAB15D"/>
<path fill-rule="evenodd" clip-rule="evenodd" d="M2.97327 6.52957C4.45797 5.04487 6.47162 4.21094 8.57121 4.21094H20.7045C21.3949 4.21094 21.9545 4.77059 21.9545 5.46094C21.9545 6.15129 21.3949 6.71094 20.7045 6.71094H8.57121C7.13457 6.71094 5.75682 7.28155 4.74104 8.29734C3.72524 9.31314 3.15454 10.691 3.15454 12.1276V28.7943C3.15454 30.2308 3.72521 31.6084 4.74104 32.6243C5.75689 33.6403 7.13466 34.2109 8.57121 34.2109H28.5712C30.0077 34.2109 31.3855 33.6403 32.4014 32.6243C33.4172 31.6084 33.9879 30.2308 33.9879 28.7943V20.4609C33.9879 19.7706 34.5475 19.2109 35.2379 19.2109C35.9282 19.2109 36.4879 19.7706 36.4879 20.4609V28.7943C36.4879 30.8939 35.6539 32.9074 34.1692 34.3921C32.6845 35.8768 30.6709 36.7109 28.5712 36.7109H8.57121C6.47152 36.7109 4.45791 35.8768 2.97327 34.3921C1.48862 32.9074 0.654541 30.8939 0.654541 28.7943V12.1276C0.654541 10.028 1.48859 8.01425 2.97327 6.52957Z" fill="#CAB15D"/>
<path fill-rule="evenodd" clip-rule="evenodd" d="M31.4878 0.59375C32.1781 0.59375 32.7378 1.15339 32.7378 1.84375V15.1771C32.7378 15.8674 32.1781 16.4271 31.4878 16.4271C30.7975 16.4271 30.2378 15.8674 30.2378 15.1771V1.84375C30.2378 1.15339 30.7975 0.59375 31.4878 0.59375Z" fill="#CAB15D"/>
<path fill-rule="evenodd" clip-rule="evenodd" d="M30.6055 0.959865C31.0936 0.471712 31.885 0.471712 32.3731 0.959865L37.7065 6.29321C38.1946 6.78136 38.1946 7.57281 37.7065 8.06097C37.2183 8.54912 36.427 8.54912 35.9388 8.06097L31.4893 3.61151L27.0398 8.06097C26.5516 8.54912 25.7601 8.54912 25.2721 8.06097C24.784 7.57281 24.784 6.78136 25.2721 6.29321L30.6055 0.959865Z" fill="#CAB15D"/>
</g>
<defs>
<clipPath id="clip0_13_3713">
<rect width="40" height="40" fill="white" transform="translate(0.237793 0.460938)"/>
</clipPath>
</defs>
</svg>
